<?xml version="1.0" encoding="UTF-8" standalone="no"?>
<!DOCTYPE svg PUBLIC "-//W3C//DTD SVG 1.1//EN" "http://www.w3.org/Graphics/SVG/1.1/DTD/svg11.dtd">
 <svg width="339px" height="56px" viewBox="0 0 339 56" version="1.1" xmlns="http://www.w3.org/2000/svg" xmlns:xlink="http://www.w3.org/1999/xlink" xml:space="preserve" xmlns:serif="http://www.serif.com/" style="fill-rule:evenodd;clip-rule:evenodd;stroke-linejoin:round;stroke-miterlimit:2;">
    <g transform="matrix(1,0,0,1,-12405,-4197.49)">
        <g id="Logo-Tight" serif:id="Logo Tight" transform="matrix(0.42375,0,0,0.07,12405,4197.49)">
            <rect x="0" y="0" width="800" height="800" style="fill:none;"/>
            <clipPath id="_clip1">
                <rect x="0" y="0" width="800" height="800"/>
            </clipPath>
            <g clip-path="url(#_clip1)">
                <g transform="matrix(0.165192,0,0,1,-2292.7,-5542.28)">
                    <path d="M14677.9,5970.24C14667,6085.89 14605.5,6192.64 14515.8,6256.59L14489.3,6222.21C14570.5,6162.95 14622.9,6070.18 14633.6,5970.24L14677.9,5970.24ZM13879,5970.24L13924.4,5970.24C13935.1,6070.18 13987.5,6162.95 14068.7,6222.21L14041.1,6256.59C13951.4,6192.64 13889.9,6085.89 13879,5970.24ZM14117,5582.79C14166.3,5560.16 14221.2,5547.54 14279,5547.54C14336.8,5547.54 14391.7,5560.16 14441.1,5582.79L14423.3,5622.97C14331.4,5582.3 14226.6,5582.3 14134.7,5622.97L14117,5582.79Z" style="fill:rgb(46,118,194);"/>
                </g>
                <g transform="matrix(0.165192,0,0,1,-2085.05,-5542.28)">
                    <path d="M12890.3,5845.13L13022,5624.78L13304.7,6097.5L12739.4,6097.5L12792,6009.47L12988.5,6009.47L12890.3,5845.13Z" style="fill:rgb(46,118,194);"/>
                </g>
                <g transform="matrix(0.0556273,-3.23197e-17,1.79282e-18,0.281605,-107.573,244.102)">
                    <path d="M2507.99,38.459L2813.99,650.448L2202,650.448L2507.99,38.459Z" style="fill:rgb(46,118,194);"/>
                </g>
                <g transform="matrix(6.89558,0,0,41.7429,-86035.7,-175775)">
                    <text x="12499.2px" y="4224.24px" style="font-family:'ArialMT', 'Arial', sans-serif;font-size:12px;fill:rgb(46,118,194);">SIGHTINGS</text>
                </g>
            </g>
        </g>
    </g>
</svg>
