<?xml version="1.0" encoding="UTF-8" standalone="no"?>
<!DOCTYPE svg PUBLIC "-//W3C//DTD SVG 1.1//EN" "http://www.w3.org/Graphics/SVG/1.1/DTD/svg11.dtd">
<svg width="100%" height="100%" viewBox="0 0 1000 1000" version="1.1" xmlns="http://www.w3.org/2000/svg" xmlns:xlink="http://www.w3.org/1999/xlink" xml:space="preserve" xmlns:serif="http://www.serif.com/" style="fill-rule:evenodd;clip-rule:evenodd;stroke-linejoin:round;stroke-miterlimit:2;">
    <g transform="matrix(1,0,0,1,0,-4197.49)">
        <g id="Logo-Roomy" serif:id="Logo Roomy" transform="matrix(1.25,0,0,1.25,0,4197.49)">
            <rect x="0" y="0" width="800" height="800" style="fill:none;"/>
            <clipPath id="_clip1">
                <rect x="0" y="0" width="800" height="800"/>
            </clipPath>
            <g clip-path="url(#_clip1)">
                <g transform="matrix(1,0,0,1.01317,-3313.19,1.73688e-13)">
                    <rect x="3313.19" y="0" width="800" height="789.605" style="fill:white;"/>
                </g>
                <g transform="matrix(0.8,0,0,0.8,-11023.2,-4353.82)">
                    <path d="M14677.9,5970.24C14667,6085.89 14605.5,6192.64 14515.8,6256.59L14489.3,6222.21C14570.5,6162.95 14622.9,6070.18 14633.6,5970.24L14677.9,5970.24ZM13879,5970.24L13924.4,5970.24C13935.1,6070.18 13987.5,6162.95 14068.7,6222.21L14041.1,6256.59C13951.4,6192.64 13889.9,6085.89 13879,5970.24ZM14117,5582.79C14166.3,5560.16 14221.2,5547.54 14279,5547.54C14336.8,5547.54 14391.7,5560.16 14441.1,5582.79L14423.3,5622.97C14331.4,5582.3 14226.6,5582.3 14134.7,5622.97L14117,5582.79Z" style="fill:rgb(46,118,194);"/>
                </g>
                <g transform="matrix(0.8,0,0,0.8,-10017.6,-4353.82)">
                    <path d="M12890.3,5845.13L13022,5624.78L13304.7,6097.5L12739.4,6097.5L12792,6009.47L12988.5,6009.47L12890.3,5845.13Z" style="fill:rgb(46,118,194);"/>
                </g>
                <g transform="matrix(0.269395,-2.58557e-17,8.68239e-18,0.225284,-440.96,275.282)">
                    <path d="M2507.99,38.459L2813.99,650.448L2202,650.448L2507.99,38.459Z" style="fill:rgb(46,118,194);"/>
                </g>
            </g>
        </g>
    </g>
</svg>
